<svg xmlns="http://www.w3.org/2000/svg" width="698" height="698" viewBox="0 0 698 698">
  <defs>
    <linearGradient id="hairDeepBlackToLightBrown" x1="0" y1="0" x2="0" y2="1">
      <stop offset="0%" stop-color="#000000" />
      <stop offset="60%" stop-color="#5c3a1a" />
      <stop offset="100%" stop-color="#c49a6c" />
    </linearGradient>
  </defs>

  <!-- Background -->
  <circle cx="349.68" cy="346.77" r="341.64" fill="#f5f5f5"/>

  <!-- Hair with gradient -->
  <circle cx="346.37" cy="339.57" r="164.9" fill="url(#hairDeepBlackToLightBrown)"/>

  <!-- Natural Black male hairline -->
  <path
    d="M210,360
       Q280,320 320,340
       Q346,360 372,340
       Q410,320 480,360"
    stroke="black"
    stroke-width="6"
    fill="none"
    stroke-linejoin="round"
  />

  <!-- Face (brown skin tone) -->
  <circle cx="346.37" cy="372.44" r="151.45" fill="#8D5524"/>
  <path fill="#8D5524"
        d="M296.5,473h99a3.35,3.35,0,0,1,3.35,3.35v81.18
           A52.83,52.83,0,0,1,346,610.37h0
           a52.83,52.83,0,0,1-52.83-52.83V476.35
           A3.35,3.35,0,0,1,296.5,473Z"/>

  <!-- Ears -->
  <ellipse cx="194.86" cy="372.3" rx="14.09" ry="26.42" fill="#8D5524"/>
  <ellipse cx="497.8"  cy="372.3" rx="14.09" ry="26.42" fill="#8D5524"/>

  <!-- Earrings -->
  <rect x="186" y="380" width="12" height="12" fill="white" stroke="#aaa" stroke-width="1"/>
  <rect x="489" y="380" width="12" height="12" fill="white" stroke="#aaa" stroke-width="1"/>

  <!-- Shirt (red) -->
  <path fill="#E53935"
        d="M601,790.76a340,340,0,0,0,187.79-56.2
           c-12.59-68.8-60.5-72.72-60.5-72.72H464.09
           s-45.21,3.71-59.33,67A340.07,340.07,0,0,0,601,790.76Z"
        transform="translate(-251 -101)"/>
</svg>
